<svg class="img-fluid" id="outputsvg" xmlns="http://www.w3.org/2000/svg" style="transform: matrix(1.3, 0, 0, 1.3, 0, 0); transform-origin: 50% 50%; cursor: move; transition: none 0s ease 0s;" width="93" height="93" viewBox="0 0 930 930"><g id="l4ND8WvC27M601egAbEpbHD" fill="rgb(0,0,0)" style="transform: none;"><g><path id="pJANjq81W" d="M197 900 c-15 -12 -29 -36 -33 -55 -6 -33 -9 -35 -46 -35 -53 0 -94 -23 -107 -61 -7 -20 -11 -125 -11 -284 0 -246 1 -253 23 -286 29 -43 63 -61 105 -55 18 3 32 0 32 -6 0 -27 36 -80 63 -95 57 -29 96 -14 340 125 126 72 235 136 243 143 23 19 16 37 -23 64 -61 41 -92 35 -344 -65 -125 -49 -229 -90 -233 -90 -3 0 -6 124 -6 275 0 151 2 275 5 275 2 0 66 -28 142 -61 225 -100 324 -139 357 -139 54 0 127 58 108 86 -10 14 -302 185 -408 239 -102 52 -163 59 -207 25z m341 -151 c122 -68 222 -127 222 -130 0 -13 -52 -29 -75 -23 -14 3 -127 50 -252 103 -246 105 -259 115 -212 162 36 36 78 22 317 -112z m-378 -279 l0 -300 -40 0 c-35 0 -43 5 -60 32 -18 31 -20 51 -20 276 l0 243 25 24 c16 17 35 25 60 25 l35 0 0 -300z m584 -143 c17 -13 16 -15 -15 -34 -130 -79 -415 -235 -438 -239 -33 -7 -77 27 -86 67 -6 26 -3 27 232 121 131 53 250 96 264 97 14 1 33 -5 43 -12z"></path></g></g></svg>